<svg width="238" height="54" viewBox="0 0 238 54" fill="none" xmlns="http://www.w3.org/2000/svg">
<path fill-rule="evenodd" clip-rule="evenodd" d="M9.84918 32.3675L7.52349 36.7379L7.52309 51.4197H-0.000822647L0.00047347 3.6185H7.52439L7.52382 24.4462L17.3739 3.6185H24.8978L14.4321 24.9242L24.8965 51.4197H17.1674L9.84918 32.3675ZM35.5186 40.4254C35.5186 42.1553 35.872 43.3731 36.5787 44.0788C37.2855 44.7844 38.2317 45.1372 39.4173 45.1372C40.6029 45.1372 41.5491 44.7844 42.2559 44.0788C42.9627 43.3731 43.3161 42.1553 43.3162 40.4254L43.3169 14.6127C43.3169 12.8828 42.9635 11.665 42.2568 10.9594C41.55 10.2537 40.6038 9.9009 39.4182 9.9009C38.2326 9.9009 37.2864 10.2537 36.5796 10.9594C35.8728 11.665 35.5194 12.8828 35.5193 14.6127L35.5186 40.4254ZM27.9949 15.0908C27.995 11.2212 28.9754 8.25074 30.9363 6.17934C32.8971 4.10795 35.7243 3.07227 39.4178 3.07227C43.1114 3.07227 45.9385 4.10795 47.8993 6.17934C49.86 8.25074 50.8403 11.2212 50.8402 15.0908L50.8395 39.9475C50.8394 43.8171 49.859 46.7876 47.8981 48.859C45.9373 50.9304 43.1101 51.9661 39.4165 51.9661C35.7229 51.9661 32.8958 50.9304 30.9351 48.859C28.9744 46.7876 27.9941 43.8171 27.9942 39.9475L27.9949 15.0908ZM63.1718 16.7981L63.1708 51.4198H56.3993L56.4006 3.61863H65.8397L73.568 32.2311L73.5688 3.61863H80.2719L80.2706 51.4198H72.5415L63.1718 16.7981ZM85.4897 15.0909C85.4898 11.2212 86.4133 8.25076 88.2601 6.17936C90.107 4.10797 92.8771 3.07229 96.5707 3.07229C100.264 3.07229 103.034 4.10797 104.881 6.17936C106.728 8.25076 107.651 11.2212 107.651 15.0909L107.651 16.5932H100.537L100.538 14.6129C100.538 12.8829 100.207 11.6651 99.5459 10.9595C98.8847 10.2538 97.9613 9.90103 96.7757 9.90103C95.5901 9.90103 94.6667 10.2538 94.0055 10.9595C93.3443 11.6651 93.0137 12.8829 93.0136 14.6129C93.0136 16.2518 93.3783 17.6972 94.1079 18.9491C94.8375 20.2011 95.7494 21.3847 96.8438 22.5001C97.9381 23.6154 99.1123 24.7308 100.366 25.8461C101.62 26.9615 102.794 28.1793 103.889 29.4995C104.983 30.8197 105.895 32.3221 106.625 34.0065C107.354 35.6909 107.719 37.6712 107.719 39.9475C107.719 43.8171 106.772 46.7876 104.88 48.859C102.988 50.9304 100.195 51.9661 96.501 51.9661C92.8074 51.9661 90.0145 50.9304 88.1222 48.859C86.2298 46.7876 85.2837 43.8171 85.2838 39.9475L85.2839 37.0111H92.3974L92.3973 40.4255C92.3973 42.1555 92.7507 43.3619 93.4574 44.0447C94.1642 44.7276 95.1104 45.069 96.296 45.069C97.4816 45.069 98.4278 44.7276 99.1346 44.0447C99.8414 43.3619 100.195 42.1555 100.195 40.4255C100.195 38.7866 99.8301 37.3412 99.1006 36.0893C98.371 34.8373 97.4591 33.6537 96.3647 32.5383C95.2704 31.4229 94.0962 30.3076 92.8422 29.1922C91.5883 28.0769 90.4141 26.8591 89.3198 25.5388C88.2254 24.2186 87.3135 22.7163 86.5839 21.0319C85.8544 19.3474 85.4896 17.3671 85.4897 15.0909ZM110.612 3.61847H133.868L133.868 10.4472H126.002L126.001 51.4197H118.477L118.478 10.4472H110.612L110.612 3.61847ZM153.653 51.4196C153.562 51.101 153.47 50.8051 153.379 50.5319C153.288 50.2588 153.208 49.9173 153.14 49.5076C153.072 49.0979 153.026 48.5743 153.003 47.937C152.98 47.2996 152.969 46.503 152.969 45.5469L152.969 38.0353C152.969 35.8046 152.582 34.234 151.807 33.3235C151.031 32.413 149.777 31.9577 148.045 31.9577H145.445L145.445 51.4196H137.921L137.922 3.61845H149.277C153.198 3.61845 156.037 4.52894 157.792 6.34995C159.548 8.17096 160.425 10.9252 160.425 14.6127L160.425 18.3685C160.425 23.2853 158.784 26.5175 155.5 28.0653C157.415 28.8393 158.726 30.1026 159.433 31.8553C160.14 33.608 160.493 35.7363 160.493 38.2402L160.493 45.6152C160.493 46.7989 160.538 47.8346 160.63 48.7223C160.721 49.61 160.949 50.5091 161.314 51.4196H153.653ZM145.447 10.4473L145.446 25.1291H148.387C149.801 25.1291 150.907 24.7649 151.705 24.0365C152.503 23.3081 152.902 21.9879 152.902 20.0759L152.902 15.364C152.902 13.6341 152.594 12.3821 151.979 11.6082C151.363 10.8343 150.394 10.4473 149.072 10.4473H145.447ZM173.373 3.61861L173.372 40.4938C173.372 42.2238 173.725 43.4302 174.432 44.113C175.139 44.7959 176.085 45.1374 177.271 45.1374C178.456 45.1374 179.402 44.7959 180.109 44.113C180.816 43.4302 181.169 42.2238 181.169 40.4938L181.17 3.61861H188.284L188.283 40.0158C188.283 43.8854 187.337 46.8559 185.444 48.9273C183.552 50.9987 180.759 52.0344 177.065 52.0344C173.372 52.0344 170.579 50.9987 168.686 48.9273C166.794 46.8559 165.848 43.8854 165.848 40.0158L165.849 3.61861H173.373ZM214.744 3.61863H238L238 10.4474H230.134L230.133 51.4198H222.609L222.61 10.4474H214.744L214.744 3.61863Z" fill="#1A1A1A"/>
<path fill-rule="evenodd" clip-rule="evenodd" d="M188.953 27L208.497 0L208.495 54L188.953 27Z" fill="#1A1A1A"/>
</svg>
